<?xml version="1.0"?>
<svg xmlns="http://www.w3.org/2000/svg" xmlns:lc="http://www.librecad.org" xmlns:xlink="http://www.w3.org/1999/xlink" width="820cm" height="600.00000934cm" viewBox="0 0 820 600.00000934">
    <g lc:layername="meta" lc:is_locked="false" lc:is_construction="false" fill="none" stroke="black" stroke-width="1">
        <line x1="330" y1="50.00001869" x2="330" y2="210.00001869"/>
        <path d="M350,0.00000934 A20,20 0 0,0 330,20.00000934 "/>
        <path d="M570,20.00000934 A20,20 0 0,0 550,0.00000934 "/>
        <path d="M550,240.00000934 A20,20 0 0,0 570,220.00000934 "/>
        <path d="M330,220.00000934 A20,20 0 0,0 350,240.00000934 "/>
        <line x1="550" y1="240.00000934" x2="350" y2="240.00000934"/>
        <line x1="570" y1="220.00000934" x2="570" y2="20.00000934"/>
        <line x1="330" y1="220.00000934" x2="330" y2="20.00004513"/>
        <line x1="350" y1="0.00000934" x2="550" y2="0.00000934"/>
        <path d="M380,205.00000934 L420,205.00000934 L420,210.00000934 L380,210.00000934 L380,205.00000934 Z "/>
        <path d="M520,210.00000934 L480,210.00000934 L480,205.00000934 L520,205.00000934 L520,210.00000934 Z "/>
        <path d="M380,35.00000934 L420,35.00000338 L419.99999925,30.00000338 L379.99999925,30.00000934 L380,35.00000934 Z "/>
        <path d="M519.99999925,29.99998847 L479.99999925,29.99999443 L480,34.99999443 L520,34.99998847 L519.99999925,29.99998847 Z "/>
        <path d="M367.5,47.3295536 L532.5,47.3295536 L532.5,147.3295536 L367.5,147.3295536 L367.5,47.3295536 Z "/>
        <path d="M420,44.00000934 L480,44.00000934 L480,40.00000934 L420,40.00000934 L420,44.00000934 Z "/>
        <circle cx="350.00001342" cy="32.49999036" r="1.49998101"/>
        <circle cx="550.00001342" cy="32.49999036" r="1.49998101"/>
        <circle cx="350" cy="207.50000934" r="1.49998101"/>
        <circle cx="550" cy="207.5" r="1.49998101"/>
        <line x1="340" y1="350.00000934" x2="340" y2="250.00000934"/>
        <line x1="570" y1="250.00000934" x2="570" y2="350.00000934"/>
        <line x1="385" y1="250.00000934" x2="385" y2="245.00000934"/>
        <line x1="385" y1="245.00000934" x2="425" y2="245.00000934"/>
        <line x1="425" y1="245.00000934" x2="425" y2="250.00000934"/>
        <line x1="485" y1="250.00000934" x2="485" y2="245.00000934"/>
        <line x1="485" y1="245.00000934" x2="525" y2="245.00000934"/>
        <line x1="525" y1="245.00000934" x2="525" y2="250.00000934"/>
        <line x1="425" y1="250.00000934" x2="485" y2="250.00000934"/>
        <line x1="385" y1="350.00000934" x2="385" y2="355.00000934"/>
        <line x1="385" y1="355.00000934" x2="425" y2="355.00000934"/>
        <line x1="425" y1="355.00000934" x2="425" y2="350.00000934"/>
        <line x1="425" y1="350.00000934" x2="485" y2="350.00000934"/>
        <line x1="485" y1="350.00000934" x2="485" y2="355.00000934"/>
        <line x1="485" y1="355.00000934" x2="525" y2="355.00000934"/>
        <line x1="525" y1="355.00000934" x2="525" y2="350.00000934"/>
        <path d="M525,320.00000934 A10,10 0 1,0 545,320.00000934 "/>
        <path d="M545,280.00000934 A10,10 0 1,0 525,280.00000934 "/>
        <line x1="525" y1="320.00000934" x2="525" y2="280.00000934"/>
        <line x1="545" y1="280.00000934" x2="545" y2="320.00000934"/>
        <path d="M365,320.00000934 A10,10 0 1,0 385,320.00000934 "/>
        <path d="M385,280.00000934 A10,10 0 1,0 365,280.00000934 "/>
        <line x1="365" y1="320.00000934" x2="365" y2="280.00000934"/>
        <line x1="385" y1="280.00000934" x2="385" y2="320.00000934"/>
        <path d="M425,320.00000934 A10,10 0 1,0 445,320.00000934 "/>
        <path d="M445,280.00000934 A10,10 0 1,0 425,280.00000934 "/>
        <line x1="425" y1="320.00000934" x2="425" y2="280.00000934"/>
        <line x1="445" y1="280.00000934" x2="445" y2="320.00000934"/>
        <path d="M465,320.00000934 A10,10 0 1,0 485,320.00000934 "/>
        <path d="M485,280.00000934 A10,10 0 1,0 465,280.00000934 "/>
        <line x1="465" y1="320.00000934" x2="465" y2="280.00000934"/>
        <line x1="485" y1="280.00000934" x2="485" y2="320.00000934"/>
        <line x1="353.5" y1="253.00000934" x2="353.5" y2="250.00000934"/>
        <line x1="353.5" y1="253.00000934" x2="352.5" y2="253.00000934"/>
        <line x1="356.5" y1="250.00000934" x2="356.5" y2="253.00000934"/>
        <line x1="340" y1="250.00000934" x2="353.5" y2="250.00000934"/>
        <line x1="356.5" y1="250.00000934" x2="385" y2="250.00000934"/>
        <line x1="552.5" y1="253.00000934" x2="553.5" y2="253.00000934"/>
        <line x1="553.5" y1="253.00000934" x2="553.5" y2="250.00000934"/>
        <line x1="553.5" y1="253.00000934" x2="552.5" y2="253.00000934"/>
        <line x1="553.5" y1="256.00000934" x2="552.5" y2="256.00000934"/>
        <line x1="556.5" y1="250.00000934" x2="556.5" y2="253.00000934"/>
        <line x1="556.5" y1="253.00000934" x2="557.5" y2="253.00000934"/>
        <line x1="557.5" y1="256.00000934" x2="556.5" y2="256.00000934"/>
        <line x1="553.5" y1="260.00000934" x2="553.5" y2="256.00000934"/>
        <line x1="556.5" y1="256.00000934" x2="556.5" y2="260.00000934"/>
        <line x1="556.5" y1="250.00000934" x2="570" y2="250.00000934"/>
        <line x1="525" y1="250.00000934" x2="553.5" y2="250.00000934"/>
        <line x1="340" y1="350.00000934" x2="353.5" y2="350.00000934"/>
        <line x1="356.5" y1="350.00000934" x2="385" y2="350.00000934"/>
        <line x1="556.5" y1="350.00000934" x2="570" y2="350.00000934"/>
        <line x1="525" y1="350.00000934" x2="553.5" y2="350.00000934"/>
        <line x1="330" y1="410.00001869" x2="330" y2="570.00001869"/>
        <path d="M350,360.00000934 A20,20 0 0,0 330,380.00000934 "/>
        <path d="M570,380.00000934 A20,20 0 0,0 550,360.00000934 "/>
        <path d="M550,600.00000934 A20,20 0 0,0 570,580.00000934 "/>
        <path d="M330,580.00000934 A20,20 0 0,0 350,600.00000934 "/>
        <line x1="550" y1="600.00000934" x2="350" y2="600.00000934"/>
        <line x1="570" y1="580.00000934" x2="570" y2="380.00000934"/>
        <line x1="330" y1="580.00000934" x2="330" y2="380.00004513"/>
        <line x1="350" y1="360.00000934" x2="550" y2="360.00000934"/>
        <circle cx="350.00001342" cy="392.49999036" r="1.49998101"/>
        <circle cx="550.00001342" cy="392.49999036" r="1.49998101"/>
        <circle cx="550" cy="567.5" r="1.49998101"/>
        <circle cx="350" cy="567.50000934" r="1.49998101"/>
        <line x1="580" y1="50.00000934" x2="580" y2="210.00000934"/>
        <path d="M600,0 A20,20 0 0,0 580,20 "/>
        <path d="M820,20 A20,20 0 0,0 800,0 "/>
        <path d="M800,240 A20,20 0 0,0 820,220 "/>
        <path d="M580,220 A20,20 0 0,0 600,240 "/>
        <line x1="800" y1="240" x2="600" y2="240"/>
        <line x1="820" y1="220" x2="820" y2="20"/>
        <line x1="580" y1="220" x2="580" y2="20.00003579"/>
        <line x1="600" y1="0" x2="800" y2="0"/>
        <path d="M630,204.99999066 L670,204.99999066 L670,209.99999066 L630,209.99999066 L630,204.99999066 Z "/>
        <path d="M770,209.99999066 L730,209.99999066 L730,204.99999066 L770,204.99999066 L770,209.99999066 Z "/>
        <path d="M630,34.99999662 L670,34.99999066 L669.99999925,29.99999066 L629.99999925,29.99999662 L630,34.99999662 Z "/>
        <path d="M769.99999925,29.99997575 L729.99999925,29.99998171 L730,34.99998171 L770,34.99997575 L769.99999925,29.99997575 Z "/>
        <circle cx="600.00001342" cy="32.49997763" r="1.49998101"/>
        <circle cx="800.00001342" cy="32.49997763" r="1.49998101"/>
        <circle cx="600" cy="207.49999066" r="1.49998101"/>
        <circle cx="800" cy="207.49998131" r="1.49998101"/>
        <line x1="580" y1="410" x2="580" y2="570"/>
        <path d="M600,359.99999066 A20,20 0 0,0 580,379.99999066 "/>
        <path d="M820,379.99999066 A20,20 0 0,0 800,359.99999066 "/>
        <path d="M800,599.99999066 A20,20 0 0,0 820,579.99999066 "/>
        <path d="M580,579.99999066 A20,20 0 0,0 600,599.99999066 "/>
        <line x1="800" y1="599.99999066" x2="600" y2="599.99999066"/>
        <line x1="820" y1="579.99999066" x2="820" y2="379.99999066"/>
        <line x1="580" y1="579.99999066" x2="580" y2="380.00002644"/>
        <line x1="600" y1="359.99999066" x2="800" y2="359.99999066"/>
        <line x1="580" y1="349.99999066" x2="580" y2="249.99999066"/>
        <line x1="810" y1="249.99999066" x2="810" y2="349.99999066"/>
        <line x1="625" y1="249.99999066" x2="625" y2="244.99999066"/>
        <line x1="625" y1="244.99999066" x2="665" y2="244.99999066"/>
        <line x1="665" y1="244.99999066" x2="665" y2="249.99999066"/>
        <line x1="725" y1="249.99999066" x2="725" y2="244.99999066"/>
        <line x1="725" y1="244.99999066" x2="765" y2="244.99999066"/>
        <line x1="765" y1="244.99999066" x2="765" y2="249.99999066"/>
        <line x1="665" y1="249.99999066" x2="725" y2="249.99999066"/>
        <line x1="625" y1="349.99999066" x2="625" y2="354.99999066"/>
        <line x1="625" y1="354.99999066" x2="665" y2="354.99999066"/>
        <line x1="665" y1="354.99999066" x2="665" y2="349.99999066"/>
        <line x1="665" y1="349.99999066" x2="725" y2="349.99999066"/>
        <line x1="725" y1="349.99999066" x2="725" y2="354.99999066"/>
        <line x1="725" y1="354.99999066" x2="765" y2="354.99999066"/>
        <line x1="765" y1="354.99999066" x2="765" y2="349.99999066"/>
        <line x1="615" y1="346.99999066" x2="625" y2="346.99999066"/>
        <line x1="615" y1="342.99999066" x2="625" y2="342.99999066"/>
        <path d="M614.99998921,342.99999066 A2,2 0 0,0 614.99999066,346.99999066 "/>
        <path d="M625.00000934,346.99999066 A2,2 0 0,0 625.00001079,342.99999066 "/>
        <line x1="615" y1="256.99999066" x2="625" y2="256.99999066"/>
        <line x1="615" y1="252.99999066" x2="625" y2="252.99999066"/>
        <path d="M614.99998921,252.99999066 A2,2 0 0,0 614.99999066,256.99999066 "/>
        <path d="M625.00000934,256.99999066 A2,2 0 0,0 625.00001079,252.99999066 "/>
        <line x1="735" y1="256.99999066" x2="745" y2="256.99999066"/>
        <line x1="735" y1="252.99999066" x2="745" y2="252.99999066"/>
        <path d="M734.99998921,252.99999066 A2,2 0 0,0 734.99999066,256.99999066 "/>
        <path d="M745.00000934,256.99999066 A2,2 0 0,0 745.00001079,252.99999066 "/>
        <line x1="735" y1="346.99999066" x2="745" y2="346.99999066"/>
        <line x1="735" y1="342.99999066" x2="745" y2="342.99999066"/>
        <path d="M734.99998921,342.99999066 A2,2 0 0,0 734.99999066,346.99999066 "/>
        <path d="M745.00000934,346.99999066 A2,2 0 0,0 745.00001079,342.99999066 "/>
        <line x1="592.5" y1="252.99999066" x2="593.5" y2="252.99999066"/>
        <line x1="593.5" y1="252.99999066" x2="593.5" y2="249.99999066"/>
        <line x1="593.5" y1="252.99999066" x2="592.5" y2="252.99999066"/>
        <line x1="593.5" y1="255.99999066" x2="592.5" y2="255.99999066"/>
        <line x1="596.5" y1="249.99999066" x2="596.5" y2="252.99999066"/>
        <line x1="596.5" y1="252.99999066" x2="597.5" y2="252.99999066"/>
        <line x1="597.5" y1="255.99999066" x2="596.5" y2="255.99999066"/>
        <line x1="593.5" y1="259.99999066" x2="593.5" y2="255.99999066"/>
        <line x1="596.5" y1="255.99999066" x2="596.5" y2="259.99999066"/>
        <line x1="792.5" y1="252.99999066" x2="793.5" y2="252.99999066"/>
        <line x1="793.5" y1="252.99999066" x2="793.5" y2="249.99999066"/>
        <line x1="793.5" y1="252.99999066" x2="792.5" y2="252.99999066"/>
        <line x1="793.5" y1="255.99999066" x2="792.5" y2="255.99999066"/>
        <line x1="796.5" y1="249.99999066" x2="796.5" y2="252.99999066"/>
        <line x1="796.5" y1="252.99999066" x2="797.5" y2="252.99999066"/>
        <line x1="797.5" y1="255.99999066" x2="796.5" y2="255.99999066"/>
        <line x1="793.5" y1="259.99999066" x2="793.5" y2="255.99999066"/>
        <line x1="796.5" y1="255.99999066" x2="796.5" y2="259.99999066"/>
        <line x1="796.5" y1="249.99999066" x2="810" y2="249.99999066"/>
        <line x1="765" y1="249.99999066" x2="793.5" y2="249.99999066"/>
        <line x1="596.5" y1="249.99999066" x2="625" y2="249.99999066"/>
        <line x1="580" y1="249.99999066" x2="593.5" y2="249.99999066"/>
        <line x1="796.5" y1="349.99999066" x2="810" y2="349.99999066"/>
        <line x1="765" y1="349.99999066" x2="793.5" y2="349.99999066"/>
        <line x1="596.5" y1="349.99999066" x2="625" y2="349.99999066"/>
        <line x1="580" y1="349.99999066" x2="593.5" y2="349.99999066"/>
        <path d="M765,319.99999066 A10,10 0 1,0 785,319.99999066 "/>
        <path d="M785,279.99999066 A10,10 0 1,0 765,279.99999066 "/>
        <line x1="765" y1="319.99999066" x2="765" y2="279.99999066"/>
        <line x1="785" y1="279.99999066" x2="785" y2="319.99999066"/>
        <path d="M605,319.99999066 A10,10 0 1,0 625,319.99999066 "/>
        <path d="M625,279.99999066 A10,10 0 1,0 605,279.99999066 "/>
        <line x1="605" y1="319.99999066" x2="605" y2="279.99999066"/>
        <line x1="625" y1="279.99999066" x2="625" y2="319.99999066"/>
        <path d="M665,319.99999066 A10,10 0 1,0 685,319.99999066 "/>
        <path d="M685,279.99999066 A10,10 0 1,0 665,279.99999066 "/>
        <line x1="665" y1="319.99999066" x2="665" y2="279.99999066"/>
        <line x1="685" y1="279.99999066" x2="685" y2="319.99999066"/>
        <path d="M705,319.99999066 A10,10 0 1,0 725,319.99999066 "/>
        <path d="M725,279.99999066 A10,10 0 1,0 705,279.99999066 "/>
        <line x1="705" y1="319.99999066" x2="705" y2="279.99999066"/>
        <line x1="725" y1="279.99999066" x2="725" y2="319.99999066"/>
        <path d="M589,399.99723903 A4,4 0 0,0 585,403.99723364 "/>
        <line x1="585" y1="541.99723903" x2="585" y2="403.99723903"/>
        <path d="M585,541.99724443 A4,4 0 0,0 589,545.99723903 "/>
        <line x1="585" y1="404.00277965" x2="585" y2="403.30277965"/>
        <line x1="585" y1="403.30277965" x2="585" y2="403.10277965"/>
        <line x1="585" y1="403.10277965" x2="585" y2="404.30277965"/>
        <path d="M815,404.00277965 A4,4 0 0,0 811,400.00278505 "/>
        <line x1="815" y1="404.00277965" x2="815" y2="541.99169842"/>
        <line x1="589" y1="399.99723903" x2="811" y2="400.00277965"/>
        <path d="M811,546.00277426 A4,4 0 0,0 815,542.00277965 "/>
        <line x1="589" y1="545.99723903" x2="811" y2="546.00277965"/>
        <path d="M339,399.99725772 A4,4 0 0,0 335,403.99725233 "/>
        <line x1="335" y1="541.99725772" x2="335" y2="403.99725772"/>
        <path d="M335,541.99726312 A4,4 0 0,0 339,545.99725772 "/>
        <line x1="335" y1="404.00279834" x2="335" y2="403.30279834"/>
        <line x1="335" y1="403.30279834" x2="335" y2="403.10279834"/>
        <line x1="335" y1="403.10279834" x2="335" y2="404.30279834"/>
        <path d="M565,404.00279834 A4,4 0 0,0 561,400.00280374 "/>
        <line x1="565" y1="404.00279834" x2="565" y2="541.9917171"/>
        <line x1="339" y1="399.99725772" x2="561" y2="400.00279834"/>
        <path d="M561,546.00279295 A4,4 0 0,0 565,542.00279834 "/>
        <line x1="339" y1="545.99725772" x2="561" y2="546.00279834"/>
        <line x1="335" y1="435.00000934" x2="330" y2="435.00000934"/>
        <line x1="335" y1="424.00000934" x2="330" y2="424.00000934"/>
        <line x1="585" y1="434.99999066" x2="580" y2="434.99999066"/>
        <line x1="585" y1="423.99999066" x2="580" y2="423.99999066"/>
        <line x1="358" y1="253.00000934" x2="358" y2="256.00000934"/>
        <line x1="356.5" y1="253.00000934" x2="358" y2="253.00000934"/>
        <line x1="358" y1="256.00000934" x2="356.5" y2="256.00000934"/>
        <line x1="353.5" y1="256.00000934" x2="352" y2="256.00000934"/>
        <line x1="352" y1="253.00000934" x2="353.5" y2="253.00000934"/>
        <line x1="352" y1="253.00000934" x2="352" y2="256.00000934"/>
        <line x1="356.5" y1="256.00000934" x2="356.5" y2="262.00000934"/>
        <line x1="353.5" y1="262.00000934" x2="353.5" y2="256.00000934"/>
        <line x1="353.5" y1="262.00000934" x2="356.5" y2="262.00000934"/>
        <line x1="553.5" y1="253.00000934" x2="553.5" y2="250.00000934"/>
        <line x1="553.5" y1="253.00000934" x2="552.5" y2="253.00000934"/>
        <line x1="556.5" y1="250.00000934" x2="556.5" y2="253.00000934"/>
        <line x1="558" y1="253.00000934" x2="558" y2="256.00000934"/>
        <line x1="556.5" y1="253.00000934" x2="558" y2="253.00000934"/>
        <line x1="558" y1="256.00000934" x2="556.5" y2="256.00000934"/>
        <line x1="553.5" y1="256.00000934" x2="552" y2="256.00000934"/>
        <line x1="552" y1="253.00000934" x2="553.5" y2="253.00000934"/>
        <line x1="552" y1="253.00000934" x2="552" y2="256.00000934"/>
        <line x1="556.5" y1="256.00000934" x2="556.5" y2="262.00000934"/>
        <line x1="553.5" y1="262.00000934" x2="553.5" y2="256.00000934"/>
        <line x1="553.5" y1="262.00000934" x2="556.5" y2="262.00000934"/>
        <line x1="593.5" y1="253.00000934" x2="593.5" y2="250.00000934"/>
        <line x1="593.5" y1="253.00000934" x2="592.5" y2="253.00000934"/>
        <line x1="596.5" y1="250.00000934" x2="596.5" y2="253.00000934"/>
        <line x1="598" y1="253.00000934" x2="598" y2="256.00000934"/>
        <line x1="596.5" y1="253.00000934" x2="598" y2="253.00000934"/>
        <line x1="598" y1="256.00000934" x2="596.5" y2="256.00000934"/>
        <line x1="593.5" y1="256.00000934" x2="592" y2="256.00000934"/>
        <line x1="592" y1="253.00000934" x2="593.5" y2="253.00000934"/>
        <line x1="592" y1="253.00000934" x2="592" y2="256.00000934"/>
        <line x1="596.5" y1="256.00000934" x2="596.5" y2="262.00000934"/>
        <line x1="593.5" y1="262.00000934" x2="593.5" y2="256.00000934"/>
        <line x1="593.5" y1="262.00000934" x2="596.5" y2="262.00000934"/>
        <line x1="793.5" y1="253.00000934" x2="793.5" y2="250.00000934"/>
        <line x1="793.5" y1="253.00000934" x2="792.5" y2="253.00000934"/>
        <line x1="796.5" y1="250.00000934" x2="796.5" y2="253.00000934"/>
        <line x1="798" y1="253.00000934" x2="798" y2="256.00000934"/>
        <line x1="796.5" y1="253.00000934" x2="798" y2="253.00000934"/>
        <line x1="798" y1="256.00000934" x2="796.5" y2="256.00000934"/>
        <line x1="793.5" y1="256.00000934" x2="792" y2="256.00000934"/>
        <line x1="792" y1="253.00000934" x2="793.5" y2="253.00000934"/>
        <line x1="792" y1="253.00000934" x2="792" y2="256.00000934"/>
        <line x1="796.5" y1="256.00000934" x2="796.5" y2="262.00000934"/>
        <line x1="793.5" y1="262.00000934" x2="793.5" y2="256.00000934"/>
        <line x1="793.5" y1="262.00000934" x2="796.5" y2="262.00000934"/>
        <line x1="353.5" y1="346.99997197" x2="353.5" y2="349.99997197"/>
        <line x1="353.5" y1="346.99997197" x2="352.5" y2="346.99997197"/>
        <line x1="356.5" y1="349.99997197" x2="356.5" y2="346.99997197"/>
        <line x1="552.5" y1="346.99997197" x2="553.5" y2="346.99997197"/>
        <line x1="553.5" y1="346.99997197" x2="553.5" y2="349.99997197"/>
        <line x1="553.5" y1="346.99997197" x2="552.5" y2="346.99997197"/>
        <line x1="553.5" y1="343.99997197" x2="552.5" y2="343.99997197"/>
        <line x1="556.5" y1="349.99997197" x2="556.5" y2="346.99997197"/>
        <line x1="556.5" y1="346.99997197" x2="557.5" y2="346.99997197"/>
        <line x1="557.5" y1="343.99997197" x2="556.5" y2="343.99997197"/>
        <line x1="553.5" y1="339.99997197" x2="553.5" y2="343.99997197"/>
        <line x1="556.5" y1="343.99997197" x2="556.5" y2="339.99997197"/>
        <line x1="592.5" y1="346.99999066" x2="593.5" y2="346.99999066"/>
        <line x1="593.5" y1="346.99999066" x2="593.5" y2="349.99999066"/>
        <line x1="593.5" y1="346.99999066" x2="592.5" y2="346.99999066"/>
        <line x1="593.5" y1="343.99999066" x2="592.5" y2="343.99999066"/>
        <line x1="596.5" y1="349.99999066" x2="596.5" y2="346.99999066"/>
        <line x1="596.5" y1="346.99999066" x2="597.5" y2="346.99999066"/>
        <line x1="597.5" y1="343.99999066" x2="596.5" y2="343.99999066"/>
        <line x1="593.5" y1="339.99999066" x2="593.5" y2="343.99999066"/>
        <line x1="596.5" y1="343.99999066" x2="596.5" y2="339.99999066"/>
        <line x1="792.5" y1="346.99999066" x2="793.5" y2="346.99999066"/>
        <line x1="793.5" y1="346.99999066" x2="793.5" y2="349.99999066"/>
        <line x1="793.5" y1="346.99999066" x2="792.5" y2="346.99999066"/>
        <line x1="793.5" y1="343.99999066" x2="792.5" y2="343.99999066"/>
        <line x1="796.5" y1="349.99999066" x2="796.5" y2="346.99999066"/>
        <line x1="796.5" y1="346.99999066" x2="797.5" y2="346.99999066"/>
        <line x1="797.5" y1="343.99999066" x2="796.5" y2="343.99999066"/>
        <line x1="793.5" y1="339.99999066" x2="793.5" y2="343.99999066"/>
        <line x1="796.5" y1="343.99999066" x2="796.5" y2="339.99999066"/>
        <line x1="358" y1="346.99997197" x2="358" y2="343.99997197"/>
        <line x1="356.5" y1="346.99997197" x2="358" y2="346.99997197"/>
        <line x1="358" y1="343.99997197" x2="356.5" y2="343.99997197"/>
        <line x1="353.5" y1="343.99997197" x2="352" y2="343.99997197"/>
        <line x1="352" y1="346.99997197" x2="353.5" y2="346.99997197"/>
        <line x1="352" y1="346.99997197" x2="352" y2="343.99997197"/>
        <line x1="356.5" y1="343.99997197" x2="356.5" y2="337.99997197"/>
        <line x1="353.5" y1="337.99997197" x2="353.5" y2="343.99997197"/>
        <line x1="353.5" y1="337.99997197" x2="356.5" y2="337.99997197"/>
        <line x1="553.5" y1="346.99997197" x2="553.5" y2="349.99997197"/>
        <line x1="553.5" y1="346.99997197" x2="552.5" y2="346.99997197"/>
        <line x1="556.5" y1="349.99997197" x2="556.5" y2="346.99997197"/>
        <line x1="558" y1="346.99997197" x2="558" y2="343.99997197"/>
        <line x1="556.5" y1="346.99997197" x2="558" y2="346.99997197"/>
        <line x1="558" y1="343.99997197" x2="556.5" y2="343.99997197"/>
        <line x1="553.5" y1="343.99997197" x2="552" y2="343.99997197"/>
        <line x1="552" y1="346.99997197" x2="553.5" y2="346.99997197"/>
        <line x1="552" y1="346.99997197" x2="552" y2="343.99997197"/>
        <line x1="556.5" y1="343.99997197" x2="556.5" y2="337.99997197"/>
        <line x1="553.5" y1="337.99997197" x2="553.5" y2="343.99997197"/>
        <line x1="593.5" y1="346.99997197" x2="593.5" y2="349.99997197"/>
        <line x1="593.5" y1="346.99997197" x2="592.5" y2="346.99997197"/>
        <line x1="596.5" y1="349.99997197" x2="596.5" y2="346.99997197"/>
        <line x1="598" y1="346.99997197" x2="598" y2="343.99997197"/>
        <line x1="596.5" y1="346.99997197" x2="598" y2="346.99997197"/>
        <line x1="598" y1="343.99997197" x2="596.5" y2="343.99997197"/>
        <line x1="593.5" y1="343.99997197" x2="592" y2="343.99997197"/>
        <line x1="592" y1="346.99997197" x2="593.5" y2="346.99997197"/>
        <line x1="592" y1="346.99997197" x2="592" y2="343.99997197"/>
        <line x1="596.5" y1="343.99997197" x2="596.5" y2="337.99997197"/>
        <line x1="593.5" y1="337.99997197" x2="593.5" y2="343.99997197"/>
        <line x1="593.5" y1="337.99997197" x2="596.5" y2="337.99997197"/>
        <line x1="793.5" y1="346.99997197" x2="793.5" y2="349.99997197"/>
        <line x1="793.5" y1="346.99997197" x2="792.5" y2="346.99997197"/>
        <line x1="796.5" y1="349.99997197" x2="796.5" y2="346.99997197"/>
        <line x1="798" y1="346.99997197" x2="798" y2="343.99997197"/>
        <line x1="796.5" y1="346.99997197" x2="798" y2="346.99997197"/>
        <line x1="798" y1="343.99997197" x2="796.5" y2="343.99997197"/>
        <line x1="793.5" y1="343.99997197" x2="792" y2="343.99997197"/>
        <line x1="792" y1="346.99997197" x2="793.5" y2="346.99997197"/>
        <line x1="792" y1="346.99997197" x2="792" y2="343.99997197"/>
        <line x1="796.5" y1="343.99997197" x2="796.5" y2="337.99997197"/>
        <line x1="793.5" y1="337.99997197" x2="793.5" y2="343.99997197"/>
        <line x1="793.5" y1="337.99997197" x2="796.5" y2="337.99997197"/>
        <line x1="553.5" y1="338.00000934" x2="556.5" y2="338.00000934"/>
        <line x1="0" y1="50.00001869" x2="0" y2="210.00001869"/>
        <path d="M20,0.00000934 A20,20 0 0,0 0,20.00000934 "/>
        <path d="M240,20.00000934 A20,20 0 0,0 220,0.00000934 "/>
        <path d="M220,240.00000934 A20,20 0 0,0 240,220.00000934 "/>
        <path d="M0,220.00000934 A20,20 0 0,0 20,240.00000934 "/>
        <line x1="220" y1="240.00000934" x2="20" y2="240.00000934"/>
        <line x1="240" y1="220.00000934" x2="240" y2="20.00000934"/>
        <line x1="0" y1="220.00000934" x2="0" y2="20.00004513"/>
        <line x1="20" y1="0.00000934" x2="220" y2="0.00000934"/>
        <path d="M50,205.00000934 L90,205.00000934 L90,210.00000934 L50,210.00000934 L50,205.00000934 Z "/>
        <path d="M190,210.00000934 L150,210.00000934 L150,205.00000934 L190,205.00000934 L190,210.00000934 Z "/>
        <path d="M50,35.00000934 L90,35.00000338 L89.99999925,30.00000338 L49.99999925,30.00000934 L50,35.00000934 Z "/>
        <path d="M189.99999925,29.99998847 L149.99999925,29.99999443 L150,34.99999443 L190,34.99998847 L189.99999925,29.99998847 Z "/>
        <path d="M37.5,47.3295536 L202.5,47.3295536 L202.5,147.3295536 L37.5,147.3295536 L37.5,47.3295536 Z "/>
        <path d="M90,44.00000934 L150,44.00000934 L150,40.00000934 L90,40.00000934 L90,44.00000934 Z "/>
        <circle cx="20.00001342" cy="32.49999036" r="1.49998101"/>
        <circle cx="220.00001342" cy="32.49999036" r="1.49998101"/>
        <circle cx="20" cy="207.50000934" r="1.49998101"/>
        <circle cx="220" cy="207.5" r="1.49998101"/>
        <line x1="0" y1="292.00001869" x2="0" y2="452.00001869"/>
        <path d="M20,242.00000934 A20,20 0 0,0 0,262.00000934 "/>
        <path d="M240,262.00000934 A20,20 0 0,0 220,242.00000934 "/>
        <path d="M220,482.00000934 A20,20 0 0,0 240,462.00000934 "/>
        <path d="M0,462.00000934 A20,20 0 0,0 20,482.00000934 "/>
        <line x1="220" y1="482.00000934" x2="20" y2="482.00000934"/>
        <line x1="240" y1="462.00000934" x2="240" y2="262.00000934"/>
        <line x1="0" y1="462.00000934" x2="0" y2="262.00004513"/>
        <line x1="20" y1="242.00000934" x2="220" y2="242.00000934"/>
        <path d="M50,447.00000934 L90,447.00000934 L90,452.00000934 L50,452.00000934 L50,447.00000934 Z "/>
        <path d="M190,452.00000934 L150,452.00000934 L150,447.00000934 L190,447.00000934 L190,452.00000934 Z "/>
        <path d="M50,277.00000934 L90,277.00000338 L89.99999925,272.00000338 L49.99999925,272.00000934 L50,277.00000934 Z "/>
        <path d="M189.99999925,271.99998847 L149.99999925,271.99999443 L150,276.99999443 L190,276.99998847 L189.99999925,271.99998847 Z "/>
        <circle cx="20.00001342" cy="274.49999036" r="1.49998101"/>
        <circle cx="220.00001342" cy="274.49999036" r="1.49998101"/>
        <circle cx="20" cy="449.50000934" r="1.49998101"/>
        <circle cx="220" cy="449.5" r="1.49998101"/>
        <line x1="120" y1="253.00000934" x2="119" y2="255.00000934"/>
        <line x1="119" y1="255.00000934" x2="100" y2="255.00000934"/>
        <line x1="140" y1="255.00000934" x2="121" y2="255.00000934"/>
        <line x1="121" y1="255.00000934" x2="120" y2="253.00000934"/>
        <line x1="140" y1="265.00000934" x2="140" y2="255.00000934"/>
        <line x1="100" y1="255.00000934" x2="100" y2="265.00000934"/>
        <line x1="100" y1="265.00000934" x2="140" y2="265.00000934"/>
    </g>
</svg>
